<svg xmlns="http://www.w3.org/2000/svg" width="512" height="512" viewBox="0 0 512 512" version="1.1">
	<path d="M 0 84 C 0 131.520, 0.381 168, 0.878 168 C 1.360 168, 2.346 167.288, 3.068 166.418 C 5.310 163.717, 15.778 158.989, 24.327 156.816 C 32.965 154.621, 54.605 153.812, 64.049 155.331 L 68.598 156.062 70.454 148.909 C 75.654 128.859, 89.465 110.440, 107.289 99.784 C 115.095 95.118, 114.020 94.625, 120.700 105.933 C 130.232 122.072, 134.260 136.176, 134.282 153.500 C 134.300 166.809, 132.352 175.382, 126.820 186.351 C 125.197 189.569, 124.011 192.321, 124.185 192.466 C 127.775 195.463, 146.230 200.391, 157 201.228 L 160.500 201.500 161.010 250 C 161.510 297.523, 161.566 298.614, 163.793 304.147 C 166.836 311.706, 172.513 317.916, 180.179 322.073 C 186.464 325.481, 186.585 325.502, 201.528 325.836 C 214.753 326.131, 217.311 325.917, 222.852 324.050 L 229.148 321.929 235.453 324.059 C 241.008 325.935, 243.528 326.147, 256.629 325.844 C 270.479 325.524, 271.886 325.310, 277.125 322.738 C 283.758 319.480, 291.265 311.831, 294.321 305.217 C 296.452 300.603, 296.506 299.425, 296.794 251.250 L 297.088 202 312.509 202 L 327.929 202 328.215 251.750 L 328.500 301.500 331.969 307.900 C 336.056 315.438, 342.396 320.882, 350.715 323.995 C 355.809 325.901, 358.081 326.100, 371.496 325.817 C 386.214 325.507, 386.709 325.425, 393.236 322.208 C 403.682 317.060, 410.080 308.262, 412.028 296.364 C 412.556 293.139, 412.991 270.587, 412.994 246.250 L 413 202 428 202 L 443 202 443 262.066 C 443 301.558, 443.355 322.794, 444.035 324.066 C 445.020 325.906, 446.406 326, 472.594 326 L 500.117 326 497.037 331.779 C 489.595 345.743, 473.085 364.120, 460.025 372.979 C 433.246 391.143, 383.614 401.303, 329.937 399.609 C 299.738 398.656, 278.996 395.645, 252.561 388.377 C 219.501 379.287, 189.244 364.120, 164 343.981 C 153.443 335.559, 134.605 316.314, 125.737 304.890 C 111.355 286.364, 94.624 256.760, 84.258 231.500 L 80.155 221.500 69.327 220.723 C 49.020 219.265, 31.443 212.399, 18.810 200.990 C 11.972 194.815, 4.572 184.652, 1.706 177.500 C 0.226 173.806, 0.099 186.449, 0.052 342.752 L 0 512.004 256.250 511.752 L 512.500 511.500 512.738 255.750 L 512.977 0 256.488 0 L 0 0 0 84 M 0.478 84.500 C 0.478 130.700, 0.600 149.454, 0.750 126.175 C 0.899 102.896, 0.899 65.096, 0.750 42.175 C 0.600 19.254, 0.478 38.300, 0.478 84.500 M 0.489 343 C 0.489 436.225, 0.606 474.363, 0.750 427.750 C 0.894 381.138, 0.894 304.863, 0.750 258.250 C 0.606 211.638, 0.489 249.775, 0.489 343 M 195.240 246.750 L 195.500 291.500 203.750 291.790 L 212 292.081 212 247.040 L 212 202 203.490 202 L 194.979 202 195.240 246.750 M 246 247 L 246 292 254.500 292 L 263 292 263 247 L 263 202 254.500 202 L 246 202 246 247 M 362 247 L 362 292 370 292 L 378 292 378 247 L 378 202 370 202 L 362 202 362 247 M 477.705 213.628 C 477.317 214.016, 477 231.808, 477 253.167 L 477 292 485.512 292 L 494.023 292 493.762 252.750 L 493.500 213.500 485.955 213.212 C 481.805 213.053, 478.093 213.241, 477.705 213.628" stroke="none" fill="black" fill-rule="evenodd"/>
</svg>